<?xml version="1.0" standalone="no"?>
<!DOCTYPE svg PUBLIC "-//W3C//DTD SVG 20010904//EN"
 "http://www.w3.org/TR/2001/REC-SVG-20010904/DTD/svg10.dtd">
<svg version="1.0" xmlns="http://www.w3.org/2000/svg"
 width="430.000000pt" height="430.000000pt" viewBox="0 0 430.000000 430.000000"
 preserveAspectRatio="xMidYMid meet">
<metadata>
Created by potrace 1.14, written by Peter Selinger 2001-2017
</metadata>
<g transform="translate(0.000000,430.000000) scale(0.100000,-0.100000)"
fill="#000000" stroke="none">
<path d="M2102 4229 c-13 -5 -28 -7 -33 -3 -5 3 -9 0 -9 -7 0 -8 -5 -7 -17 2
-15 12 -16 12 -10 -5 6 -15 5 -17 -6 -8 -8 7 -17 9 -21 5 -7 -7 -38 -13 -71
-14 -11 0 -26 -6 -35 -13 -8 -7 -22 -12 -30 -11 -8 0 -21 -6 -28 -15 -8 -8
-10 -9 -7 -2 6 11 3 11 -16 0 -13 -7 -27 -17 -30 -21 -3 -4 -15 -9 -27 -10
-16 -1 -18 -4 -10 -14 8 -10 7 -12 -5 -8 -9 4 -24 -3 -37 -17 -13 -13 -20 -17
-16 -11 5 9 2 11 -8 7 -9 -3 -13 -10 -10 -15 3 -5 0 -9 -6 -9 -6 0 -8 -5 -4
-12 4 -7 3 -8 -5 -4 -6 4 -14 0 -17 -8 -3 -9 -10 -13 -15 -10 -5 3 -9 1 -9 -4
0 -5 -11 -21 -25 -36 -14 -15 -23 -32 -19 -37 3 -5 0 -8 -8 -7 -7 2 -12 -5
-12 -15 2 -15 -1 -16 -15 -5 -9 7 -13 9 -9 4 4 -5 3 -18 -3 -29 -9 -15 -8 -18
3 -12 7 3 5 0 -4 -8 -10 -8 -15 -17 -11 -20 3 -4 1 -7 -7 -7 -10 0 -10 -3 0
-15 11 -13 10 -14 -3 -9 -16 6 -18 -10 -4 -33 6 -9 3 -11 -10 -6 -17 7 -17 6
0 -20 16 -24 16 -26 0 -20 -12 5 -15 2 -10 -10 3 -8 1 -18 -6 -21 -9 -3 -9 -5
1 -5 6 -1 12 -6 12 -12 0 -5 -5 -7 -12 -3 -6 4 -8 3 -5 -3 4 -6 0 -16 -8 -23
-13 -11 -14 -10 -9 5 6 15 3 17 -14 13 -13 -4 -20 -2 -16 4 3 5 -3 12 -15 15
-12 3 -21 9 -21 14 0 5 -9 9 -21 9 -11 0 -27 7 -35 15 -8 8 -21 12 -29 9 -8
-4 -15 -1 -15 5 0 6 -5 11 -11 11 -5 0 -7 -6 -3 -12 4 -7 -1 -5 -12 4 -16 14
-23 15 -33 5 -10 -9 -12 -9 -9 2 2 8 -6 14 -19 16 -13 1 -23 -3 -23 -9 0 -6
-5 -4 -10 4 -5 8 -10 11 -10 6 0 -5 -7 -3 -15 4 -12 10 -15 10 -15 -1 0 -11
-2 -11 -10 1 -5 8 -10 10 -10 4 0 -6 -23 -9 -61 -7 -33 2 -58 -1 -55 -5 6 -10
-36 -8 -52 2 -7 4 -12 3 -12 -1 0 -5 -14 -10 -32 -11 -17 -1 -38 -10 -45 -20
-8 -9 -12 -11 -8 -4 3 6 1 12 -4 12 -6 0 -11 -5 -11 -12 0 -6 -3 -9 -6 -5 -3
3 -35 -9 -69 -28 -35 -18 -67 -30 -71 -27 -4 4 -4 -1 -1 -10 4 -13 2 -15 -10
-11 -12 5 -14 3 -8 -7 6 -10 4 -12 -8 -7 -11 4 -17 1 -17 -9 0 -8 -4 -12 -10
-9 -9 6 -14 -7 -11 -27 0 -4 -7 -4 -16 -1 -13 5 -15 2 -10 -11 4 -10 3 -15 -3
-11 -6 3 -10 1 -10 -5 0 -6 -5 -8 -12 -4 -7 5 -9 2 -6 -8 4 -8 -2 -21 -12 -28
-11 -8 -17 -17 -14 -22 3 -4 0 -8 -6 -8 -6 0 -8 -4 -5 -10 3 -5 3 -10 -2 -10
-15 0 -32 -49 -19 -54 6 -2 3 -5 -7 -5 -14 -1 -16 -5 -7 -21 9 -17 8 -19 -7
-13 -16 6 -16 5 -4 -10 8 -11 9 -17 3 -17 -6 0 -9 -7 -6 -15 4 -8 11 -12 18
-9 6 3 3 -1 -6 -8 -15 -13 -15 -15 0 -26 15 -10 15 -11 -2 -5 -16 5 -18 3 -13
-11 5 -11 3 -15 -5 -10 -8 5 -9 2 -5 -10 5 -11 3 -15 -5 -10 -6 4 -17 -1 -24
-10 -7 -10 -15 -17 -18 -17 -19 2 -27 0 -23 -6 5 -10 -30 -43 -37 -36 -3 4 -6
-1 -6 -9 0 -9 -7 -19 -16 -22 -8 -3 -12 -10 -9 -16 3 -5 1 -10 -5 -10 -6 0 -8
-4 -5 -10 3 -5 0 -10 -8 -10 -8 0 -17 -7 -21 -15 -3 -8 -1 -15 5 -15 6 0 3 -8
-8 -17 -10 -10 -13 -14 -6 -9 10 6 12 4 7 -8 -3 -9 -10 -16 -16 -16 -5 0 -6
-5 -3 -10 4 -6 1 -17 -5 -25 -7 -8 -8 -15 -3 -15 5 0 10 -7 10 -15 0 -8 -4
-12 -9 -9 -4 3 -8 0 -8 -5 0 -6 6 -11 13 -11 8 0 7 -4 -3 -10 -10 -6 -11 -10
-2 -10 6 0 12 -5 12 -11 0 -5 -5 -7 -10 -4 -13 8 -8 -17 5 -28 13 -10 -25 -39
-42 -33 -7 3 -13 1 -13 -5 0 -6 -9 -8 -19 -4 -11 3 -23 0 -27 -6 -5 -8 -3 -9
6 -4 8 5 11 4 6 -3 -4 -6 -13 -9 -20 -6 -8 3 -23 -6 -33 -20 -11 -14 -24 -22
-29 -18 -5 4 -2 -2 6 -12 9 -12 10 -17 3 -13 -9 6 -12 -2 -11 -27 1 -23 5 -33
12 -29 6 4 5 0 -2 -9 -11 -14 -10 -18 5 -27 10 -6 13 -11 6 -11 -7 0 -10 -7
-7 -15 4 -8 11 -12 16 -9 6 4 6 -1 -1 -13 -6 -11 -7 -23 -4 -27 4 -4 8 -14 10
-24 6 -32 12 -77 12 -90 1 -7 5 -11 10 -8 5 4 7 -3 4 -14 -3 -13 0 -20 8 -20
11 0 11 -2 -1 -10 -12 -8 -12 -10 5 -11 11 0 14 -3 7 -6 -10 -4 -10 -8 0 -21
11 -13 11 -14 -2 -7 -12 7 -13 6 -4 -6 6 -8 11 -26 10 -41 -1 -14 2 -24 6 -22
4 3 8 -8 8 -25 0 -18 7 -34 18 -40 9 -6 11 -11 5 -11 -18 0 -16 -25 2 -40 8
-7 15 -18 15 -24 0 -6 -5 -4 -10 4 -8 12 -10 10 -10 -8 0 -14 4 -21 11 -16 7
4 9 0 5 -14 -5 -14 -1 -24 11 -31 14 -8 15 -10 3 -11 -13 0 -13 -1 0 -10 12
-8 12 -10 1 -10 -11 0 -11 -3 -1 -15 6 -8 9 -19 5 -25 -3 -5 2 -10 12 -11 16
0 16 -1 -2 -9 -15 -6 -16 -9 -4 -9 9 -1 16 -8 16 -16 0 -8 -4 -12 -9 -9 -15
10 -8 -9 10 -23 9 -8 12 -12 6 -9 -7 3 -9 -3 -6 -19 2 -14 8 -25 13 -25 4 0 6
-9 4 -20 -2 -11 2 -20 8 -20 7 0 6 -4 -3 -10 -12 -8 -12 -10 5 -11 19 0 19 -1
1 -8 -18 -7 -18 -8 -2 -14 13 -5 15 -11 7 -25 -7 -13 -7 -22 1 -30 5 -5 11
-23 13 -40 1 -16 7 -37 12 -47 6 -10 8 -26 6 -36 -4 -14 0 -19 13 -19 15 0 16
-2 5 -9 -13 -8 -13 -12 0 -27 8 -10 9 -15 2 -11 -7 5 -9 0 -6 -13 3 -11 10
-20 15 -20 6 0 7 -11 4 -24 -3 -14 -1 -28 4 -31 8 -5 7 -11 -1 -21 -9 -12 -9
-13 3 -9 11 5 16 -1 16 -19 0 -16 -5 -23 -12 -20 -6 3 -1 -3 12 -14 15 -14 18
-22 10 -25 -10 -3 -10 -7 0 -20 8 -9 11 -21 7 -27 -3 -5 -2 -10 4 -10 6 0 7
-7 4 -17 -5 -12 -3 -14 8 -8 12 7 12 6 1 -7 -10 -13 -11 -22 -2 -38 6 -12 9
-24 6 -28 -3 -3 1 -16 10 -30 9 -13 14 -33 11 -43 -3 -10 -1 -22 5 -25 5 -3 7
-13 4 -21 -3 -8 -1 -11 4 -8 6 4 8 -6 6 -25 -2 -17 1 -33 5 -36 5 -3 6 -10 3
-16 -5 -8 -1 -9 12 -5 18 7 18 7 0 -8 -11 -8 -15 -15 -10 -15 8 0 14 -22 17
-67 0 -7 3 -13 7 -13 3 0 6 -8 7 -17 3 -39 8 -58 18 -65 6 -5 4 -8 -5 -8 -11
0 -10 -3 4 -11 15 -9 16 -13 5 -20 -8 -5 -9 -9 -3 -9 6 0 10 -16 9 -35 0 -22
3 -34 10 -31 6 2 11 -5 11 -15 0 -11 -4 -19 -9 -19 -4 0 -5 -5 -2 -10 4 -6 12
-7 18 -3 7 4 6 0 -2 -10 -12 -15 -9 -21 12 -18 12 2 8 -17 -4 -21 -9 -3 -9 -9
-1 -24 8 -16 8 -24 -1 -33 -9 -10 -8 -11 6 -5 15 5 16 3 7 -20 -5 -15 -7 -25
-2 -23 4 3 13 -1 20 -9 7 -8 8 -14 2 -14 -5 0 -10 -5 -10 -11 0 -5 6 -7 13 -3
9 5 9 4 1 -5 -7 -7 -9 -21 -7 -32 5 -16 8 -17 22 -7 13 10 14 10 3 -2 -16 -18
-16 -50 1 -50 8 0 7 -4 -3 -10 -14 -9 -7 -14 13 -11 4 1 3 -8 -3 -20 -9 -16
-8 -24 6 -40 9 -10 13 -19 7 -19 -5 0 -10 -7 -10 -15 0 -8 4 -12 9 -9 4 3 8
-8 8 -25 0 -16 5 -33 10 -36 7 -4 6 -13 -1 -27 -8 -15 -8 -19 0 -14 11 7 15
-4 12 -36 -1 -9 7 -19 19 -23 11 -3 18 -10 15 -15 -7 -11 30 -32 39 -23 3 3 6
2 6 -4 0 -6 18 -13 40 -15 29 -2 39 0 36 9 -3 7 1 10 9 6 8 -3 13 -8 11 -12
-2 -3 29 -6 70 -6 41 0 74 3 74 7 0 4 7 5 15 2 32 -13 100 -9 113 6 8 8 11 10
8 4 -3 -7 1 -14 9 -18 8 -3 15 -1 15 4 0 5 7 7 15 4 32 -13 100 -9 113 6 8 8
11 10 8 4 -3 -7 1 -14 9 -18 8 -3 15 -1 15 4 0 5 7 7 15 4 32 -13 100 -9 113
6 8 8 11 10 8 4 -3 -7 1 -14 9 -18 8 -3 15 -1 15 4 0 5 6 7 14 4 23 -9 106 -9
109 -1 1 5 15 4 30 -2 15 -6 27 -7 27 -2 0 5 18 5 40 1 22 -4 40 -5 40 -1 0 8
115 5 129 -3 6 -4 11 -3 11 3 0 6 6 8 14 5 18 -7 106 -10 106 -4 0 7 107 3
125 -4 8 -3 15 -2 15 3 0 5 18 5 40 1 22 -4 40 -4 40 1 0 4 14 4 30 -1 17 -5
30 -5 30 0 0 5 7 7 15 4 32 -13 100 -9 113 6 8 8 11 10 8 4 -3 -7 1 -14 9 -18
8 -3 15 -1 15 4 0 5 7 7 15 4 32 -13 100 -9 113 6 8 8 11 10 8 4 -3 -7 1 -14
9 -18 8 -3 15 -1 15 4 0 5 7 7 15 4 32 -13 100 -9 113 6 8 8 11 10 8 4 -3 -7
1 -14 9 -18 8 -3 15 -1 15 4 0 5 6 7 14 4 23 -9 106 -9 109 -1 1 5 15 4 30 -2
15 -6 27 -7 27 -2 0 5 18 5 40 1 22 -4 40 -5 40 -1 0 8 115 5 129 -3 6 -4 11
-3 11 3 0 6 6 8 14 5 18 -7 106 -10 106 -4 0 7 107 3 125 -4 8 -3 15 -2 15 3
0 5 18 5 40 1 22 -4 40 -4 40 0 0 4 12 6 28 4 36 -4 64 5 56 18 -5 8 -1 9 10
5 13 -5 17 -3 13 7 -4 11 -1 13 11 9 15 -6 15 -5 3 10 -12 15 -12 17 4 11 15
-6 17 -3 13 14 -4 15 0 25 10 32 14 8 14 9 2 10 -13 0 -13 1 0 10 13 9 13 10
0 11 -10 0 -8 3 5 9 11 5 14 9 6 9 -10 1 -10 7 4 27 9 15 12 24 7 20 -6 -4
-10 2 -9 13 0 11 4 18 8 15 4 -2 9 5 12 16 3 11 1 18 -3 15 -5 -3 -7 2 -6 11
1 8 9 20 17 25 12 7 12 9 -1 9 -13 0 -13 1 0 10 13 9 13 11 0 20 -13 8 -12 10
3 10 12 0 17 6 15 18 -1 9 1 23 6 31 7 11 6 12 -5 6 -11 -7 -12 -6 -2 6 17 22
23 61 10 77 -8 10 -7 12 3 10 7 -2 15 3 18 11 3 8 0 11 -7 7 -7 -5 -9 -1 -5 8
3 9 10 14 15 11 4 -3 6 3 4 15 -2 11 0 22 6 25 5 4 5 14 -2 27 -10 18 -9 20 7
14 10 -4 15 -4 11 0 -4 4 -1 14 6 22 9 13 9 14 0 8 -8 -4 -13 -2 -13 8 0 8 5
18 10 21 8 5 8 11 0 20 -8 9 -7 17 4 28 11 11 12 17 3 26 -7 7 -7 12 -2 11 22
-5 25 1 14 23 -11 19 -10 20 3 9 13 -10 15 -9 13 13 -2 14 1 28 6 31 6 3 5 12
-3 22 -11 13 -11 14 1 7 11 -6 13 -4 8 8 -3 10 -2 17 4 17 6 0 7 4 4 10 -3 5
-1 18 4 28 7 13 6 23 -2 32 -9 10 -9 11 0 6 6 -3 14 -2 18 4 3 5 -2 10 -11 10
-16 0 -16 1 2 16 10 8 12 13 4 9 -8 -4 -6 1 4 9 15 12 16 16 5 16 -10 0 -11 2
-2 8 7 4 13 22 15 40 1 18 7 32 13 32 5 0 3 5 -5 10 -8 5 -10 10 -4 10 15 0
25 38 12 46 -5 3 -3 13 7 24 13 14 13 19 3 23 -10 4 -10 6 0 6 7 1 12 14 12
31 0 17 5 30 10 30 6 0 10 5 10 11 0 5 -6 7 -12 3 -10 -6 -10 -5 -1 8 7 8 10
18 6 21 -3 4 -1 7 6 7 7 0 9 4 6 10 -3 5 -1 18 4 28 7 13 7 22 0 29 -6 6 -5
14 6 23 18 15 20 34 3 25 -7 -4 -4 1 6 9 15 12 16 16 5 16 -9 0 -10 3 -3 8 6
4 10 15 8 25 -1 9 2 15 6 12 5 -3 11 -1 15 5 3 5 2 10 -3 10 -6 0 -12 7 -15
14 -4 10 -1 13 8 10 10 -4 13 0 10 15 -2 12 1 21 7 21 6 0 5 7 -3 17 -8 9 -9
14 -3 10 7 -4 15 0 18 9 4 10 2 13 -7 8 -9 -5 -9 -4 1 7 6 7 12 17 12 22 0 4
-6 5 -12 2 -7 -4 -5 0 5 8 18 15 18 15 0 20 -17 4 -17 5 0 6 15 1 16 4 6 24
-11 20 -11 21 4 9 13 -11 15 -11 13 0 -1 7 -6 19 -10 27 -6 10 -5 12 2 7 8 -5
12 2 12 19 0 18 4 24 13 19 8 -5 8 -3 -2 9 -11 14 -11 18 5 24 16 6 16 7 -2
14 -17 7 -17 8 -1 8 15 1 16 4 7 21 -6 11 -7 20 -3 19 20 -3 27 2 13 11 -12 8
-12 10 -1 10 10 0 11 3 2 14 -8 10 -9 16 -1 21 6 3 8 11 5 16 -3 5 0 7 7 4 9
-4 13 6 12 35 0 22 4 40 9 40 5 0 4 6 -2 14 -10 11 -8 17 6 25 14 8 15 10 3
11 -12 0 -13 2 -1 9 8 5 12 19 9 35 -3 14 -2 23 2 21 5 -3 11 2 14 11 4 10 2
13 -7 8 -8 -6 -8 -3 1 9 8 9 11 21 7 27 -3 5 -1 10 4 10 6 0 11 5 11 11 0 5
-6 7 -12 3 -7 -4 -6 1 3 12 23 27 30 65 16 83 -9 12 -9 13 1 7 12 -7 16 1 14
42 -1 13 3 20 9 16 7 -4 7 1 0 15 -10 18 -9 20 6 14 16 -6 17 -5 3 12 -9 11
-10 16 -2 11 8 -5 12 0 12 14 0 12 5 30 10 40 7 13 7 21 0 25 -8 5 -7 12 1 22
10 11 10 16 0 22 -9 6 -6 10 11 15 19 5 20 8 8 16 -12 7 -12 12 -2 22 6 6 12
20 12 29 0 10 6 20 13 22 9 4 9 6 0 6 -7 1 -13 10 -13 22 0 11 -4 18 -9 15 -5
-3 -11 3 -14 14 -3 11 -12 20 -21 20 -9 0 -16 5 -16 10 0 6 -8 10 -17 8 -10
-2 -17 2 -16 9 2 9 -4 10 -22 3 -16 -6 -25 -6 -26 0 -1 6 -2 14 -3 19 -2 16
-16 25 -16 11 0 -7 -3 -10 -7 -7 -3 4 2 16 12 27 11 12 13 20 6 20 -7 0 -9 5
-5 12 11 17 11 58 1 58 -4 0 -6 4 -2 9 3 5 -2 17 -11 25 -8 9 -11 16 -6 16 5
0 9 7 9 15 0 8 -4 15 -9 15 -4 0 -8 7 -8 16 0 9 -5 12 -12 8 -8 -5 -7 0 2 11
8 10 10 16 4 12 -7 -4 -14 2 -17 14 -3 12 -10 18 -16 14 -7 -3 -8 0 -5 9 4 11
0 16 -11 16 -9 0 -13 5 -10 10 3 6 1 10 -4 10 -6 0 -11 7 -11 16 0 8 -4 12
-10 9 -5 -3 -10 -1 -10 5 0 6 -4 8 -10 5 -5 -3 -10 1 -10 9 0 8 -5 18 -12 22
-7 5 -9 2 -4 -7 4 -8 -2 -3 -13 10 -12 13 -21 20 -21 16 0 -10 -25 18 -39 43
-10 18 -9 23 4 28 14 6 14 8 -2 20 -17 13 -17 14 2 8 19 -5 19 -5 3 9 -19 15
-25 33 -8 22 5 -3 3 7 -5 21 -8 15 -12 31 -9 36 3 4 0 8 -6 8 -6 0 -8 5 -5 10
3 6 1 10 -5 10 -7 0 -9 7 -6 16 3 8 2 13 -2 11 -4 -3 -13 1 -20 9 -10 11 -10
14 0 14 7 1 2 7 -12 15 -14 7 -24 15 -22 17 2 2 0 11 -4 21 -5 14 -9 15 -21 6
-8 -7 -13 -8 -12 -3 4 22 -3 33 -36 58 -28 21 -34 23 -29 9 3 -10 -2 -7 -10 7
-8 14 -15 21 -16 17 0 -4 -11 4 -24 18 -15 16 -27 22 -31 15 -4 -7 -11 -5 -21
5 -9 8 -20 13 -25 10 -5 -4 -9 -1 -9 4 0 6 -9 11 -20 11 -11 0 -20 5 -20 11 0
6 -9 8 -20 4 -11 -4 -20 -2 -20 4 0 6 -5 11 -11 11 -6 0 -7 -6 -2 -12 4 -7 -5
-5 -20 5 -17 11 -27 13 -27 6 0 -8 -4 -8 -14 0 -10 9 -16 9 -21 1 -5 -8 -13
-6 -26 6 -10 9 -19 13 -19 8 0 -6 -26 -9 -60 -7 -43 2 -60 -1 -60 -10 0 -7 -3
-8 -8 -2 -10 14 -32 17 -32 5 0 -6 -11 -8 -25 -6 -16 3 -28 -1 -35 -12 -6 -12
-9 -13 -10 -3 0 10 -3 11 -13 2 -8 -6 -17 -8 -20 -4 -4 3 -7 1 -7 -5 0 -6 -9
-9 -20 -7 -11 2 -23 -1 -26 -7 -5 -7 -2 -8 7 -3 8 5 11 4 6 0 -4 -5 -17 -10
-29 -12 -12 -2 -25 -8 -29 -14 -3 -6 -9 -10 -13 -10 -20 3 -26 0 -20 -11 5
-10 4 -10 -6 -1 -15 14 -22 55 -7 46 5 -3 4 4 -2 15 -6 12 -7 23 -2 26 12 8 3
42 -15 57 -10 8 -11 15 -4 24 8 9 6 17 -5 29 -9 9 -13 16 -8 16 4 1 -2 9 -15
20 -13 11 -21 24 -18 29 3 5 -6 19 -21 31 -16 12 -21 19 -13 15 10 -4 9 -2 -2
8 -10 8 -16 17 -13 20 3 4 2 5 -1 2 -10 -7 -45 15 -39 25 3 5 -4 12 -16 15
-12 4 -32 17 -43 30 -12 12 -29 21 -39 19 -9 -1 -15 2 -11 7 3 5 0 9 -6 9 -6
0 -19 7 -27 16 -9 9 -26 14 -39 11 -14 -2 -32 4 -44 15 -13 12 -29 18 -41 15
-12 -3 -22 0 -26 9 -3 7 -15 14 -26 13 -41 0 -72 6 -79 16 -5 6 -8 5 -8 -4 0
-11 -3 -11 -15 -1 -12 10 -15 10 -15 -1 0 -10 -3 -10 -8 -3 -4 7 -32 12 -63
12 -31 0 -61 2 -65 5 -5 2 -20 1 -32 -4z m-1668 -2955 c3 -8 2 -12 -4 -9 -6 3
-10 10 -10 16 0 14 7 11 14 -7z m13 -49 c0 -8 -4 -12 -9 -9 -5 3 -6 10 -3 15
9 13 12 11 12 -6z"/>
<path d="M2495 4170 c3 -5 8 -10 11 -10 2 0 4 5 4 10 0 6 -5 10 -11 10 -5 0
-7 -4 -4 -10z"/>
<path d="M3765 760 c-3 -5 -1 -10 4 -10 6 0 11 5 11 10 0 6 -2 10 -4 10 -3 0
-8 -4 -11 -10z"/>
</g>
</svg>
